<?xml version="1.0" encoding="iso-8859-1"?>
<!-- Generator: Adobe Illustrator 19.0.0, SVG Export Plug-In . SVG Version: 6.00 Build 0)  -->
<svg version="1.1" id="Capa_1" xmlns="http://www.w3.org/2000/svg" xmlns:xlink="http://www.w3.org/1999/xlink" x="0px" y="0px"
	 viewBox="0 0 512 512" style="enable-background:new 0 0 512 512;" xml:space="preserve">
<g>
	<g>
		<path d="M69.709,0v60.048H39.674v30h30.035v30.317H39.674v30h30.035v30.317H39.674v30h30.035V241H39.674v30h30.035v30.317H39.674
			v30h30.035v30.317H39.674v30h30.035v30.317H39.674v30h30.035V512h402.617V0H69.709z M442.326,482H99.709v-30.048h30.036v-30
			H99.709v-30.317h30.036v-30H99.709v-30.317h30.036v-30H99.709V271h30.036v-30H99.709v-30.317h30.036v-30H99.709v-30.317h30.036
			v-30H99.709V90.048h30.036v-30H99.709V30h342.617V482z"/>
	</g>
</g>
<g>
	<g>
		<path d="M278.462,241h-14.89c-13.903,0-25.214-11.311-25.214-25.214s11.311-25.214,25.214-25.214h14.89
			c13.903,0,25.214,11.311,25.214,25.214h30c0-27.882-20.777-50.987-47.659-54.684v-30.566h-30v30.566
			c-26.882,3.696-47.658,26.803-47.658,54.684c0,30.445,24.769,55.214,55.214,55.214h14.89c13.903,0,25.214,11.311,25.214,25.214
			c0,13.903-11.311,25.214-25.214,25.214h-14.89c-13.903,0-25.214-11.311-25.214-25.214h-30c0,27.881,20.777,50.987,47.658,54.684
			v30.566h30v-30.566c26.882-3.696,47.659-26.802,47.659-54.684C333.676,265.769,308.907,241,278.462,241z"/>
	</g>
</g>
<g>
</g>
<g>
</g>
<g>
</g>
<g>
</g>
<g>
</g>
<g>
</g>
<g>
</g>
<g>
</g>
<g>
</g>
<g>
</g>
<g>
</g>
<g>
</g>
<g>
</g>
<g>
</g>
<g>
</g>
</svg>
