<svg xmlns="http://www.w3.org/2000/svg" width="120" height="120" viewBox="0 0 120 120">
  <defs>
    <style>
      .cls-1 {
        opacity: 0.7;
      }

      .cls-2 {
        fill: #ecba2b;
      }
    </style>
  </defs>
  <g id="noun_product_2294584" class="cls-1" transform="translate(-2 -2)">
    <path id="Caminho_52" data-name="Caminho 52" class="cls-2" d="M116,2H32a5.893,5.893,0,0,0-6,6V18h4V42H12.8L2,63.6V122H86V100.8l6.8,17.8,12.4-5.4a5.817,5.817,0,0,0,3.2-7.6l-27-70.4a6.062,6.062,0,0,0-7.8-3.4h-.2L61.4,37l2,5H34V18h80V90h-6v4h10V18h4V8A5.893,5.893,0,0,0,116,2ZM15.2,46H30.8l-3,6H12.2ZM71,62H49.2l3-6H68.8ZM44.8,62H27.2l3-6H47.8ZM7.2,62l3-6H25.8l-3,6Zm25-10,3-6H52.8l-3,6ZM82,118H6V66H72.6L82,90.4ZM75,35.4a2.191,2.191,0,0,1,1.6,0c.6.2.8.6,1,1.2l27.2,70.6a1.985,1.985,0,0,1-1,2.6l-8.6,3.6L66.6,39ZM67.2,52h-13l3-6h7.6ZM118,14H30V8a1.89,1.89,0,0,1,2-2h84a1.89,1.89,0,0,1,2,2Z"/>
    <path id="Caminho_53" data-name="Caminho 53" class="cls-2" d="M43.276,38H19.855a5.855,5.855,0,1,0,0,11.71H43.276a5.855,5.855,0,1,0,0-11.71Zm0,7.807H19.855a1.952,1.952,0,1,1,0-3.9H43.276a1.952,1.952,0,1,1,0,3.9Z" transform="translate(12.248 36.193)"/>
    <rect id="Retângulo_149" data-name="Retângulo 149" class="cls-2" width="15" height="4" transform="translate(12 100.897)"/>
    <rect id="Retângulo_150" data-name="Retângulo 150" class="cls-2" width="15" height="4" transform="translate(12 107.897)"/>
    <rect id="Retângulo_151" data-name="Retângulo 151" class="cls-2" width="15" height="4" transform="translate(92.897 23.538)"/>
    <rect id="Retângulo_152" data-name="Retângulo 152" class="cls-2" width="15" height="4" transform="translate(92.897 31.743)"/>
  </g>
</svg>
