<svg xmlns="http://www.w3.org/2000/svg" xmlns:xlink="http://www.w3.org/1999/xlink" width="143" height="138" viewBox="0 0 143 138">
  <defs>
    <style>
      .cls-1 {
        fill: #ecba2b;
      }

      .cls-2 {
        opacity: 0.7;
        clip-path: url(#clip-path);
      }
    </style>
    <clipPath id="clip-path">
      <rect id="Retângulo_185" data-name="Retângulo 185" class="cls-1" width="143" height="138" transform="translate(402 282)"/>
    </clipPath>
  </defs>
  <g id="Grupo_de_máscara_6" data-name="Grupo de máscara 6" class="cls-2" transform="translate(-402 -282)">
    <g id="Vendas" transform="translate(402 289.278)">
      <g id="Grupo_51" data-name="Grupo 51" transform="translate(38.301 33.956)">
        <path id="Caminho_74" data-name="Caminho 74" class="cls-1" d="M78.16,155.022H61.268V78.4h-6.69L69.63,56.711,84.85,77.689H78.16Zm-13.547-3.556h10.2V74.133H78.16L69.8,62.578l-8.53,12.267h3.345Z" transform="translate(-54.578 -56.711)"/>
      </g>
      <g id="Grupo_52" data-name="Grupo 52" transform="translate(70.078 14.756)">
        <path id="Caminho_75" data-name="Caminho 75" class="cls-1" d="M111.938,155.022H95.046V59.2h-6.69l15.053-21.689,15.22,21.156h-6.69v96.356Zm-13.547-3.556h10.2V55.111h3.345l-8.363-11.556-8.53,12.267h3.345Z" transform="translate(-88.356 -37.511)"/>
      </g>
      <g id="Grupo_53" data-name="Grupo 53" transform="translate(8.53 57.067)">
        <path id="Caminho_76" data-name="Caminho 76" class="cls-1" d="M46.516,155.022H29.623V101.511h-6.69L37.986,79.822,53.206,100.8h-6.69Zm-13.547-3.556h10.2V97.244h3.345L38.153,85.689l-8.53,12.267h3.345Z" transform="translate(-22.933 -79.822)"/>
      </g>
      <g id="Grupo_54" data-name="Grupo 54" transform="translate(113.867 99.935)">
        <path id="Caminho_77" data-name="Caminho 77" class="cls-1" d="M140.952,143.111a8.979,8.979,0,0,1-5.185-1.956l2.007-2.844c2.342,1.778,4.014,1.244,4.683.889a3.015,3.015,0,0,0,1.505-2.133,1.663,1.663,0,0,0-1-1.422l-.335-.178c-3.847-2.133-7.359-3.911-7.694-6.756a4.709,4.709,0,0,1,1.673-4.089c3.68-3.733,8.028-1.244,9.7.711l-2.342,2.489c-.5-.533-2.843-2.844-5.018-.533-.5.533-.669.889-.669,1.067.167,1.067,3.68,3.022,5.854,4.267l.334.178a4.949,4.949,0,0,1,2.843,4.444,6.251,6.251,0,0,1-3.345,5.333A8.281,8.281,0,0,1,140.952,143.111Z" transform="translate(-134.9 -122.691)"/>
      </g>
      <g id="Grupo_55" data-name="Grupo 55" transform="translate(118.414 97.956)">
        <rect id="Retângulo_183" data-name="Retângulo 183" class="cls-1" width="3.345" height="3.733"/>
      </g>
      <g id="Grupo_56" data-name="Grupo 56" transform="translate(118.414 118.578)">
        <rect id="Retângulo_184" data-name="Retângulo 184" class="cls-1" width="3.345" height="3.733"/>
      </g>
      <g id="Grupo_57" data-name="Grupo 57" transform="translate(100.685 91.022)">
        <path id="Caminho_78" data-name="Caminho 78" class="cls-1" d="M140.29,155.022c-10.7,0-19.4-9.244-19.4-20.622s8.7-20.622,19.4-20.622,19.4,9.244,19.4,20.622S150.994,155.022,140.29,155.022Zm0-37.867c-8.864,0-16.056,7.644-16.056,17.067s7.192,17.067,16.056,17.067,16.056-7.644,16.056-17.067S149.154,117.156,140.29,117.156Z" transform="translate(-120.889 -113.778)"/>
      </g>
      <g id="Grupo_58" data-name="Grupo 58" transform="translate(0)">
        <path id="Caminho_79" data-name="Caminho 79" class="cls-1" d="M156.867,155.2h-143V22.756h3.345V151.644H156.867Z" transform="translate(-13.867 -22.756)"/>
      </g>
    </g>
  </g>
</svg>
