<svg xmlns="http://www.w3.org/2000/svg" width="29.5" height="29.5" viewBox="0 0 29.5 29.5"><defs><style>.a{fill:#ecba2b;}.b{fill:none;}</style></defs><path class="a" d="M14.292,2A12.292,12.292,0,1,0,26.583,14.292,12.3,12.3,0,0,0,14.292,2Zm0,3.688A3.688,3.688,0,1,1,10.6,9.375,3.683,3.683,0,0,1,14.292,5.688Zm0,17.454a8.851,8.851,0,0,1-7.375-3.958c.037-2.446,4.917-3.786,7.375-3.786s7.338,1.34,7.375,3.786A8.851,8.851,0,0,1,14.292,23.142Z" transform="translate(0.458 0.458)"/><path class="b" d="M0,0H29.5V29.5H0Z"/></svg>