<svg xmlns="http://www.w3.org/2000/svg" xmlns:xlink="http://www.w3.org/1999/xlink" width="152" height="147" viewBox="0 0 152 147"><defs><style>.a{fill:#3d3a3a;}.b{clip-path:url(#a);}</style><clipPath id="a"><rect class="a" width="152" height="147" rx="41" transform="translate(1548 286)"/></clipPath></defs><g class="b" transform="translate(-1548 -286)"><g transform="translate(1542.333 277.833)"><path class="a" d="M58.147,155.167A42.69,42.69,0,0,0,96.2,131.647c1.8.163,3.593.163,5.227.163h2.287a12.362,12.362,0,0,0,2.45-.163h1.307l2.45-.163c.653,0,1.143-.163,1.96-.163,20.417-1.96,34.463-9.147,34.953-18.13a65.066,65.066,0,0,0,.817-8.983,41.535,41.535,0,0,0-.817-8.493,55.008,55.008,0,0,0,.817-8.493,55.009,55.009,0,0,0-.817-8.493,53.191,53.191,0,0,0,.817-8.493,40.151,40.151,0,0,0-.817-8.493,65.874,65.874,0,0,0,.653-8.493,40.15,40.15,0,0,0-.817-8.493,58.426,58.426,0,0,0,.817-8.493,56.264,56.264,0,0,0-.817-8.657C146.837,16.5,127.4,8.167,101.43,8.167c-25.807,0-45.407,8.33-45.407,19.273h0a55.85,55.85,0,0,0-.817,8.493,40.15,40.15,0,0,0,.817,8.493,58.426,58.426,0,0,0-.817,8.493,41.535,41.535,0,0,0,.817,8.493,58.426,58.426,0,0,0-.817,8.493v.327a42.519,42.519,0,0,0,2.94,84.933ZM60.27,35.77c7.023,6.533,22.54,10.943,41.16,10.943,18.783,0,34.137-4.41,41.323-10.943V36.1a32.214,32.214,0,0,1-.817,8v.163h0v.327h0c0,2.613-2.613,4.9-4.737,6.37-7.35,4.9-20.907,8-35.77,8s-28.42-3.1-35.77-8c-2.123-1.47-4.573-3.593-4.737-6.207V44.1a47.145,47.145,0,0,1-.817-8C60.27,35.933,60.27,35.933,60.27,35.77Zm77.093,32.013c0,.163-.163.163,0,0-7.513,5.063-21.07,8-35.933,8s-28.42-3.1-35.77-8a.16.16,0,0,1-.163-.163c-2.123-1.47-4.41-3.593-4.573-6.207V61.25h0v-.327h0V60.76a51.088,51.088,0,0,1-.653-7.84v-.327a20.5,20.5,0,0,0,2.777,2.123c8.167,5.553,22.54,8.82,38.383,8.82s30.217-3.267,38.383-8.82a20.5,20.5,0,0,0,2.777-2.123v.327a53.392,53.392,0,0,1-.653,7.84v.653h0C141.937,64.19,139.487,66.477,137.363,67.783ZM60.27,70.233v-.327l.49.49A.6.6,0,0,0,60.27,70.233ZM101.43,80.85c15.68,0,30.053-3.267,38.22-8.657a.16.16,0,0,0,.163-.163,20.751,20.751,0,0,0,2.777-2.287v.163a65.4,65.4,0,0,1-.653,8h0v.49h0c0,2.613-2.45,4.9-4.573,6.207a.16.16,0,0,0-.163.163c-7.35,4.9-20.907,7.84-35.607,7.84-1.96,0-3.92,0-5.717-.163a45.167,45.167,0,0,0-10.943-13.23A75.347,75.347,0,0,0,101.43,80.85Zm0,16.987c15.843,0,30.053-3.267,38.22-8.657a.16.16,0,0,0,.163-.163h.163a20.5,20.5,0,0,0,2.777-2.123v.163a65.4,65.4,0,0,1-.653,8v.49h0c-.163,2.613-2.613,4.9-4.737,6.37a.16.16,0,0,0-.163.163h0c-7.35,4.9-20.907,7.84-35.607,7.84h-.817a41.965,41.965,0,0,0-2.613-12.087A21.777,21.777,0,0,1,101.43,97.837Zm9.8,28.583c-.49,0-1.143.163-1.633.163l-2.287.163H106a10.783,10.783,0,0,0-2.287.163h-5.39a48.11,48.11,0,0,0,2.45-12.087h.817c15.68,0,30.053-3.267,38.22-8.657a.57.57,0,0,1,.327-.163c.98-.653,1.96-1.47,2.777-2.123v.327a32.214,32.214,0,0,1-.817,8v.327h0C141.773,117.927,130.993,124.623,111.23,126.42Zm-9.8-113.353c23.847,0,40.343,7.513,40.507,14.373V27.6c-.163,6.86-16.823,14.21-40.507,14.21-23.52,0-40.18-7.35-40.507-14.21v-.327C61.25,20.58,77.747,13.067,101.43,13.067ZM58.147,74.97a37.684,37.684,0,0,1,37.567,37.077v.653A37.567,37.567,0,1,1,58.147,74.97Z"/><path class="a" d="M57.82,115.477h.327a5.724,5.724,0,0,1,4.573,2.287,5.846,5.846,0,0,1,.817,4.9,5.99,5.99,0,0,1-3.92,3.757,3.184,3.184,0,0,1-1.307.163,5.647,5.647,0,0,1-5.39-3.757,2.65,2.65,0,0,0-2.613-1.8,3.12,3.12,0,0,0-2.287,1.143c-.653.817-1.143,1.633-.98,2.287.98,3.1,4.247,5.88,6.7,7.187l.49.163v4.083c0,1.47,2.287,2.777,3.92,2.777s3.92-1.47,3.92-2.777V131.81l.49-.163a13.022,13.022,0,0,0,6.37-6.207,12.956,12.956,0,0,0-1.143-11.107c-1.633-2.94-5.39-4.9-9.147-4.9H58.31c-2.123,0-3.757-.653-4.573-2.123a5.563,5.563,0,0,1-.49-5.063,5.129,5.129,0,0,1,3.92-3.1,3.189,3.189,0,0,1,1.143-.163,5.647,5.647,0,0,1,5.39,3.757,2.65,2.65,0,0,0,2.613,1.8A2.858,2.858,0,0,0,68.6,103.39a3.6,3.6,0,0,0,.98-2.45c-1.143-3.43-4.737-6.043-6.7-7.023l-.817-.327V89.507c0-1.307-2.287-2.777-3.92-2.777s-3.92,1.307-3.92,2.777v4.247l-.327.163a13.649,13.649,0,0,0-6.533,6.37c-1.307,3.43-.817,7.187,1.633,10.943C50.633,113.843,53.9,115.477,57.82,115.477Z"/></g></g></svg>
