<svg xmlns="http://www.w3.org/2000/svg" xmlns:xlink="http://www.w3.org/1999/xlink" width="152" height="147" viewBox="0 0 152 147"><defs><style>.a,.d{fill:#3d3a3a;}.a,.c{opacity:0.7;}.b{clip-path:url(#a);}</style><clipPath id="a"><rect class="a" width="152" height="147" transform="translate(411 553)"/></clipPath></defs><g class="b" transform="translate(-411 -553)"><g class="c" transform="translate(411 550.544)"><path class="d" d="M133.994,70.393c-5.162-2.581-14.862-2.61-15.277-2.61a2.225,2.225,0,0,0,0,4.45c2.492,0,9.76.386,13.29,2.136a2.372,2.372,0,0,0,.979.237,2.226,2.226,0,0,0,1.009-4.212Z"/><path class="d" d="M145.088,102.045l-9.2-2.64a.953.953,0,0,1-.682-.89V95.46a16.712,16.712,0,0,0,2.136-1.75,16.351,16.351,0,0,0,5.013-11.836V77.632l.89-1.78a14.129,14.129,0,0,0,1.483-6.318V58.083a2.241,2.241,0,0,0-2.225-2.225H121.09a14.154,14.154,0,0,0-14.12,14.12V70.1a11.589,11.589,0,0,0,1.246,5.251l1.127,2.284V81.28a17.368,17.368,0,0,0,7.149,14.031v3.2c0,.5,0,.712-1.839,1.216l-4.479,1.276L97.21,96.29a2.1,2.1,0,0,0-.593-1.691l-4.153-4.361v-7.3c.445-.356.86-.742,1.276-1.127a26.1,26.1,0,0,0,8.217-18.985V56.985a25.809,25.809,0,0,0,2.373-10.827V22.426A2.241,2.241,0,0,0,102.1,20.2H68.821A21.288,21.288,0,0,0,47.552,41.471v4.746a25.908,25.908,0,0,0,2.373,10.827v5.013a27.166,27.166,0,0,0,9.522,20.735v7.475l-4.153,4.361A2.173,2.173,0,0,0,54.7,96.32L41.026,101.3a11.666,11.666,0,0,0-2.759,1.454l-2.136-1.068c6.407-2.788,8.425-6.7,8.514-6.912a2.14,2.14,0,0,0,0-1.988c-1.6-3.2-1.81-9.077-1.958-13.824-.059-1.572-.089-3.055-.208-4.39C41.708,63.9,33.61,55.858,23.613,55.858S5.488,63.9,4.746,74.576c-.089,1.335-.148,2.818-.208,4.39-.148,4.717-.356,10.59-1.958,13.824a2.14,2.14,0,0,0,0,1.988c.089.208,2.106,4.094,8.543,6.882l-5.963,3A9.335,9.335,0,0,0,0,113.021v16.434a2.241,2.241,0,0,0,2.225,2.225,2.241,2.241,0,0,0,2.225-2.225V113.021a4.861,4.861,0,0,1,2.729-4.39l7.446-3.708,2.581,2.462a9.318,9.318,0,0,0,12.874,0l2.581-2.462,2.432,1.216a11.878,11.878,0,0,0-1.78,6.2v17.116a2.225,2.225,0,0,0,4.45,0V112.339a7.3,7.3,0,0,1,4.806-6.852l14.447-5.251,6.022,9.018a4.5,4.5,0,0,0,3.382,2.017,2.245,2.245,0,0,0,.445.03,4.677,4.677,0,0,0,3.263-1.335l3.678-3.678v23.168a2.225,2.225,0,0,0,4.45,0V106.287l3.678,3.678A4.625,4.625,0,0,0,85.2,111.3a2.245,2.245,0,0,0,.445-.03,4.73,4.73,0,0,0,3.382-2.017l6.022-9.018,14.447,5.251a7.3,7.3,0,0,1,4.806,6.852v17.116a2.225,2.225,0,0,0,4.45,0V112.339a11.666,11.666,0,0,0-3.293-8.128l.564-.148a12.809,12.809,0,0,0,2.076-.742l5.666,5.666v20.5a2.225,2.225,0,1,0,4.45,0v-20.5l5.636-5.636a9.059,9.059,0,0,0,.949.386l9.2,2.64a4.921,4.921,0,0,1,3.56,4.717v18.392a2.225,2.225,0,0,0,4.45,0V111.093A9.7,9.7,0,0,0,145.088,102.045ZM14.269,98.13a15.89,15.89,0,0,1-7.149-4.6A25.6,25.6,0,0,0,8.4,88.192a16.529,16.529,0,0,0,5.874,7.238Zm12.756,6.022a4.892,4.892,0,0,1-6.763,0l-2.077-1.958a4.5,4.5,0,0,0,.534-2.165V97.655a16.719,16.719,0,0,0,9.849,0v2.373a4.5,4.5,0,0,0,.534,2.165Zm-3.382-10.2A12.052,12.052,0,0,1,11.6,81.9a2.241,2.241,0,0,0-2.225-2.225,1.444,1.444,0,0,0-.356.03,3.59,3.59,0,0,1,.03-.564c.059-1.543.089-2.966.178-4.212A16.5,16.5,0,0,1,13.735,64.55a13.828,13.828,0,0,1,19.875,0,16.654,16.654,0,0,1,4.509,10.383c.089,1.246.148,2.67.178,4.212v.386a20.159,20.159,0,0,0-10.976-8.039,28.289,28.289,0,0,0-8.454-1.335,2.313,2.313,0,0,0-1.543.682l-4,4.153a2.224,2.224,0,1,0,3.2,3.085l3.352-3.471c2.877.148,12.133,1.216,15.722,9.137A12.162,12.162,0,0,1,23.642,93.947Zm9.344,4.183v-2.64a16.529,16.529,0,0,0,5.874-7.238,23.207,23.207,0,0,0,1.276,5.31A16.176,16.176,0,0,1,32.987,98.13ZM54.4,62.028V56.511a2.9,2.9,0,0,0-.208-.979,21.459,21.459,0,0,1-2.165-9.344V41.441a16.844,16.844,0,0,1,16.82-16.82H99.939V46.187a21.05,21.05,0,0,1-2.165,9.344,2.149,2.149,0,0,0-.208.979v6.348a21.367,21.367,0,0,1-6.823,15.722c-.564.5-1.127,1.009-1.721,1.454l-.03.03a21.4,21.4,0,0,1-14.447,4.3C63.244,83.653,54.4,73.834,54.4,62.028Zm12.518,44.793c-.03.03-.059.059-.119.03-.059,0-.089-.059-.119-.059L59.774,96.409,62,94.066l10.5,7.179Zm9.048-8.6L63.927,89.972V85.819A24.927,24.927,0,0,0,74.25,88.785c.593.03,1.157.059,1.75.059a25.782,25.782,0,0,0,12.014-2.937v4.064Zm9.285,8.573c0,.03-.03.059-.119.059a.307.307,0,0,1-.119-.03l-5.577-5.577,10.5-7.179,2.225,2.343Zm40.61-1.9-5.043-5.043a5.919,5.919,0,0,0,.148-1.335v-.949a15.519,15.519,0,0,0,4.42.771h.5a16.863,16.863,0,0,0,4.895-.742v.89a6.284,6.284,0,0,0,.148,1.305Zm8.4-14.358a11.886,11.886,0,0,1-8.751,3.382c-6.437-.208-11.688-5.874-11.688-12.637V77.127a2.4,2.4,0,0,0-.237-1.009L112.22,73.36a7.331,7.331,0,0,1-.771-3.263v-.089a9.672,9.672,0,0,1,9.671-9.671h19.193v9.226a9.975,9.975,0,0,1-1.009,4.331l-1.127,2.254a2.294,2.294,0,0,0-.237,1.009V81.9A12.153,12.153,0,0,1,134.261,90.536Z"/><path class="d" d="M140.134,112.962a2.241,2.241,0,0,0-2.225,2.225v14.269a2.225,2.225,0,1,0,4.45,0V115.187A2.222,2.222,0,0,0,140.134,112.962Z"/><path class="d" d="M11.747,115.9a2.241,2.241,0,0,0-2.225,2.225v11.332a2.225,2.225,0,0,0,4.45,0V118.123A2.241,2.241,0,0,0,11.747,115.9Z"/><path class="d" d="M94.184,47.018c-8.425-8.425-26.016-6.793-33.194-5.725a4.571,4.571,0,0,0-3.916,4.539v5.132a2.225,2.225,0,1,0,4.45,0V45.831a.136.136,0,0,1,.119-.148,69.893,69.893,0,0,1,14.447-.712c6.941.475,11.955,2.2,14.921,5.162a2.238,2.238,0,0,0,3.144,0A2.126,2.126,0,0,0,94.184,47.018Z"/><path class="d" d="M49.806,117.738a2.241,2.241,0,0,0-2.225,2.225v9.522a2.225,2.225,0,1,0,4.45,0v-9.522A2.222,2.222,0,0,0,49.806,117.738Z"/><path class="d" d="M102.134,117.738a2.241,2.241,0,0,0-2.225,2.225v9.522a2.225,2.225,0,0,0,4.45,0v-9.522A2.222,2.222,0,0,0,102.134,117.738Z"/></g></g></svg>
