<svg xmlns="http://www.w3.org/2000/svg" xmlns:xlink="http://www.w3.org/1999/xlink" width="128.261" height="124.404" viewBox="0 0 128.261 124.404"><defs><style>.a,.c{fill:#ecba2b;}.a{stroke:#707070;}.b{opacity:0.7;clip-path:url(#a);}</style><clipPath id="a"><rect class="a" width="128.261" height="124.404" transform="translate(1017 553)"/></clipPath></defs><g class="b" transform="translate(-1017 -553)"><g transform="translate(1030.728 553)"><path class="c" d="M112.938,11.628c-9.1-1.647-10.652-3.973-10.942-4.942-.387-1.55,1.452-3.295,1.452-3.295a1.967,1.967,0,0,0,.194-2.713A1.994,1.994,0,0,0,102,0H22.69a8.786,8.786,0,0,0-8.909,8.721v107.56a7.69,7.69,0,0,0,7.65,7.752h93.056V13.954C114.39,12.791,113.906,11.822,112.938,11.628ZM22.69,3.876H98.51a5.811,5.811,0,0,0-.29,3.876c.678,2.423,2.9,4.361,6.778,5.814H22.69a5.026,5.026,0,0,1-5.035-4.845A4.9,4.9,0,0,1,22.69,3.876Zm6.585,116.282H21.431a3.867,3.867,0,0,1-3.776-3.876V15.892a9.09,9.09,0,0,0,5.035,1.55h6.585Zm81.339,0H33.148V17.442h77.466Z" transform="translate(-13.781 0)"/><path class="c" d="M58.9,102.642H97.632a1.938,1.938,0,0,0,0-3.876H58.9a1.938,1.938,0,0,0,0,3.876Z" transform="translate(-20.554 -15.431)"/><path class="c" d="M58.9,111.829H97.632a1.938,1.938,0,0,0,0-3.876H58.9a1.938,1.938,0,0,0,0,3.876Z" transform="translate(-20.554 -16.866)"/><path class="c" d="M58.9,121.017H97.632a1.938,1.938,0,0,0,0-3.876H58.9a1.938,1.938,0,0,0,0,3.876Z" transform="translate(-20.554 -18.301)"/><path class="c" d="M78.266,86.277a21.318,21.318,0,1,0-21.3-21.318A21.373,21.373,0,0,0,78.266,86.277Zm0-38.761a17.442,17.442,0,1,1-17.43,17.442A17.487,17.487,0,0,1,78.266,47.517Z" transform="translate(-20.554 -6.818)"/><path class="c" d="M74.2,73.967a6.914,6.914,0,0,0,5.035,2.907V79.3a1.549,1.549,0,1,0,3.1,0V76.874a9.32,9.32,0,0,0,3.583-1.26,5.193,5.193,0,0,0,2.518-3.682,5.65,5.65,0,0,0-4.261-6.3,12.892,12.892,0,0,0-1.84-.485V59.432a7.492,7.492,0,0,1,1.549.678,4.22,4.22,0,0,1,1.549,2.132A2.4,2.4,0,0,0,86.889,63.7a1.306,1.306,0,0,0,1.646-1.066,4.185,4.185,0,0,0-1.162-3.295,7.323,7.323,0,0,0-2.033-1.841,8.579,8.579,0,0,0-3-1.066v-3.2a1.549,1.549,0,1,0-3.1,0v3.2a1.823,1.823,0,0,0-.775.194c-2.227.581-4.261,1.938-4.745,4.167a5.069,5.069,0,0,0,.968,4.651,8.646,8.646,0,0,0,4.551,2.132v6.3a4.376,4.376,0,0,1-2.324-1.454c-.484-.678-.678-1.55-1.259-2.229a1.448,1.448,0,0,0-2.421.1,3.04,3.04,0,0,0,.194,2.423C73.623,73.095,73.913,73.482,74.2,73.967Zm8.134-5.717.872.291A2.778,2.778,0,0,1,84.662,72.9a3.375,3.375,0,0,1-2.324,1.163Zm-5.326-5.426c-.968-1.55.581-3.1,2.033-3.585a.356.356,0,0,0,.291-.1v5.136A3.166,3.166,0,0,1,77.012,62.823Z" transform="translate(-23.076 -8.074)"/></g></g></svg>
