<svg width="120" height="120" viewBox="0 0 120 120" fill="none" xmlns="http://www.w3.org/2000/svg">
<g clip-path="url(#clip0)">
<g opacity="0.7">
<path opacity="0.7" d="M114 1.30533e-05H30C29.2081 -0.0145014 28.4214 0.130777 27.6868 0.427166C26.9523 0.723556 26.2851 1.16497 25.725 1.72504C25.165 2.28511 24.7235 2.95234 24.4272 3.68685C24.1308 4.42136 23.9855 5.20809 24 6.00001V16H28V40H10.8L0 61.6V120H84V98.8L90.8 116.6L103.2 111.2C103.91 110.913 104.557 110.488 105.102 109.95C105.648 109.412 106.082 108.771 106.379 108.065C106.677 107.359 106.832 106.601 106.835 105.835C106.839 105.068 106.691 104.309 106.4 103.6L79.4 33.2C78.8068 31.7226 77.6562 30.5378 76.1968 29.9016C74.7373 29.2654 73.0861 29.2289 71.6 29.8H71.4L59.4 35L61.4 40H32V16H112V88H106V92H116V16H120V6.00001C120.015 5.20809 119.869 4.42136 119.573 3.68685C119.276 2.95234 118.835 2.28511 118.275 1.72504C117.715 1.16497 117.048 0.723556 116.313 0.427166C115.579 0.130777 114.792 -0.0145014 114 1.30533e-05V1.30533e-05ZM13.2 44H28.8L25.8 50H10.2L13.2 44ZM69 60H47.2L50.2 54H66.8L69 60ZM42.8 60H25.2L28.2 54H45.8L42.8 60ZM5.2 60L8.2 54H23.8L20.8 60H5.2ZM30.2 50L33.2 44H50.8L47.8 50H30.2ZM80 116H4V64H70.6L80 88.4V116ZM73 33.4C73.5143 33.1983 74.0857 33.1983 74.6 33.4C75.2 33.6 75.4 34 75.6 34.6L102.8 105.2C103.008 105.678 103.02 106.218 102.833 106.705C102.646 107.191 102.275 107.585 101.8 107.8L93.2 111.4L64.6 37L73 33.4ZM65.2 50H52.2L55.2 44H62.8L65.2 50ZM116 12H28V6.00001C27.984 5.73319 28.0247 5.46599 28.1195 5.21607C28.2144 4.96615 28.3611 4.73919 28.5502 4.55018C28.7392 4.36116 28.9661 4.21439 29.2161 4.11955C29.466 4.02472 29.7332 3.98397 30 4.00001H114C114.267 3.98397 114.534 4.02472 114.784 4.11955C115.034 4.21439 115.261 4.36116 115.45 4.55018C115.639 4.73919 115.786 4.96615 115.88 5.21607C115.975 5.46599 116.016 5.73319 116 6.00001V12Z" fill="#ECBA2B"/>
<path opacity="0.7" d="M53.524 72.193H30.103C28.5501 72.193 27.0609 72.8099 25.9629 73.9079C24.8648 75.0059 24.248 76.4952 24.248 78.048C24.248 79.6008 24.8648 81.0901 25.9629 82.1881C27.0609 83.2861 28.5501 83.903 30.103 83.903H53.524C55.0768 83.903 56.5661 83.2861 57.6641 82.1881C58.7621 81.0901 59.379 79.6008 59.379 78.048C59.379 76.4952 58.7621 75.0059 57.6641 73.9079C56.5661 72.8099 55.0768 72.193 53.524 72.193V72.193ZM53.524 80H30.103C29.8395 80.0119 29.5763 79.9703 29.3293 79.8777C29.0823 79.7851 28.8567 79.6434 28.666 79.4612C28.4753 79.2789 28.3235 79.0599 28.2198 78.8174C28.1161 78.5748 28.0626 78.3138 28.0626 78.05C28.0626 77.7862 28.1161 77.5252 28.2198 77.2826C28.3235 77.0401 28.4753 76.8211 28.666 76.6388C28.8567 76.4566 29.0823 76.3149 29.3293 76.2223C29.5763 76.1296 29.8395 76.0881 30.103 76.1H53.524C53.7875 76.0881 54.0507 76.1296 54.2977 76.2223C54.5447 76.3149 54.7703 76.4566 54.961 76.6388C55.1517 76.8211 55.3035 77.0401 55.4072 77.2826C55.5109 77.5252 55.5643 77.7862 55.5643 78.05C55.5643 78.3138 55.5109 78.5748 55.4072 78.8174C55.3035 79.0599 55.1517 79.2789 54.961 79.4612C54.7703 79.6434 54.5447 79.7851 54.2977 79.8777C54.0507 79.9703 53.7875 80.0119 53.524 80Z" fill="#ECBA2B"/>
<path opacity="0.7" d="M25 98.897H10V102.897H25V98.897Z" fill="#ECBA2B"/>
<path opacity="0.7" d="M25 105.897H10V109.897H25V105.897Z" fill="#ECBA2B"/>
<path opacity="0.7" d="M105.897 21.538H90.897V25.538H105.897V21.538Z" fill="#ECBA2B"/>
<path opacity="0.7" d="M105.897 29.743H90.897V33.743H105.897V29.743Z" fill="#ECBA2B"/>
</g>
</g>
<defs>
<clipPath id="clip0">
<rect width="120" height="120" fill="white"/>
</clipPath>
</defs>
</svg>
